<?xml version="1.0" standalone="no"?>
<!DOCTYPE svg PUBLIC "-//W3C//DTD SVG 20010904//EN"
 "http://www.w3.org/TR/2001/REC-SVG-20010904/DTD/svg10.dtd">
<svg version="1.0" xmlns="http://www.w3.org/2000/svg"
 width="700.000000pt" height="700.000000pt" viewBox="0 0 700.000000 700.000000"
 preserveAspectRatio="xMidYMid meet">
<metadata>
Created by potrace 1.14, written by Peter Selinger 2001-2017
</metadata>
<g transform="translate(0.000000,700.000000) scale(0.100000,-0.100000)"
fill="#000000" stroke="none">
<path d="M3402 6408 c-169 -26 -342 -154 -420 -311 -133 -264 -51 -577 195
-745 l33 -23 -2 -185 -3 -185 -650 -3 c-632 -2 -652 -3 -729 -24 -271 -75
-490 -266 -593 -518 -69 -169 -65 -81 -66 -1609 0 -759 3 -1409 6 -1445 35
-351 299 -654 657 -751 l85 -23 1555 0 c855 0 1580 3 1610 7 386 50 708 380
747 767 8 85 8 2735 0 2820 -36 355 -296 654 -652 752 -78 21 -97 22 -675 24
-327 2 -621 3 -652 3 l-58 1 0 185 0 184 43 30 c143 100 246 285 249 451 3
167 -46 298 -158 419 -52 56 -167 138 -208 148 -6 1 -36 10 -66 18 -66 19
-175 25 -248 13z m-1007 -2039 c4 -5 123 -482 139 -559 1 -8 6 -26 9 -40 4
-14 25 -101 47 -195 54 -227 80 -274 183 -331 l52 -29 600 -5 c330 -3 634 -2
676 1 89 8 148 34 202 91 51 55 61 81 118 318 27 113 67 279 89 370 22 91 52
215 66 275 l26 110 207 -1 c230 -2 263 -8 335 -68 23 -19 55 -58 71 -87 l30
-54 3 -1377 c2 -1331 1 -1379 -17 -1428 -29 -76 -74 -125 -147 -161 l-66 -33
-1518 0 -1518 0 -66 33 c-46 23 -77 46 -101 78 -69 90 -65 3 -65 1499 l0 1353
21 57 c36 96 120 165 219 182 52 9 396 9 405 1z m1602 -9 c-2 -8 -35 -140 -73
-293 l-69 -277 -355 0 -356 1 -71 287 c-39 157 -70 289 -68 292 2 3 227 5 500
5 436 0 496 -2 492 -15z"/>
<path d="M2567 2618 c-219 -46 -307 -311 -158 -481 80 -91 231 -119 344 -64
61 31 116 88 143 153 25 58 22 167 -6 227 -57 121 -195 192 -323 165z"/>
<path d="M4295 2613 c-205 -60 -277 -314 -136 -476 81 -91 230 -119 344 -64
133 66 192 205 146 349 -47 148 -206 234 -354 191z"/>
<path d="M508 2906 c-96 -26 -175 -104 -204 -203 -13 -44 -15 -110 -12 -395
l3 -343 27 -50 c32 -60 77 -105 138 -137 63 -32 185 -32 248 0 59 31 119 94
144 150 20 45 21 64 22 402 l0 355 -25 55 c-63 134 -202 202 -341 166z"/>
<path d="M6360 2910 c-90 -16 -166 -78 -207 -167 l-27 -58 -1 -325 c0 -179 3
-347 8 -375 24 -138 150 -237 294 -231 112 4 200 62 254 166 24 45 24 46 24
410 l0 365 -28 57 c-58 119 -185 182 -317 158z"/>
</g>
</svg>
